# xmcd
#
# Track frame offsets: 
#        150
#        16071
#        32172
#        50455
#
# Disc length: 899 seconds
#
# Revision: 0
# Processed by: cddbd v1.5.2PL0 Copyright (c) Steve Scherf et al.
# Submitted via: ExactAudioCopy v0.99pb3
#
DISCID=26038104
DTITLE=Jen - One-Way Dialogue EP
DYEAR=2005
DGENRE=Country
TTITLE0=Save Me
TTITLE1=Never Were Or Will Be
TTITLE2=Morning Rain
TTITLE3=Traces of You
EXTD=
EXTT0=
EXTT1=
EXTT2=
EXTT3=
PLAYORDER=
